PathFileType	4	(X/Y/Z)	Patient4_TMGait_0pt8_01_right_04.trc.trc
DataRate	CameraRate	NumFrames	NumMarkers	Units	OrigDataRate	OrigDataStartFrame	OrigNumFrames
86.956521739130	86.956521739130	6	33	mm	86.956521739130	89	       141
Frame#	Time	Sacral			L.Shoulder			Chest			R.Shoulder			Neck			R.ASIS			L.ASIS			R.Thigh.Superior			R.Thigh.Lateral			R.Thigh.Inferior			R.Patella			L.Thigh.Superior			L.Thigh.Lateral			L.Thigh.Inferior			L.Patella			L.Shank.Superior			L.Shank.Lateral			L.Shank.Inferior			R.Shank.Superior			R.Shank.Lateral			R.Shank.Inferior			R.Heel			R.Midfoot.Superior			R.Midfoot.Lateral			R.Toe			L.Heel			L.Midfoot.Lateral			L.Midfoot.Superior			L.Toe			L.Elbow			L.Wrist			R.Elbow			R.Wrist			
		X1	Y1	Z1	X2	Y2	Z2	X3	Y3	Z3	X4	Y4	Z4	X5	Y5	Z5	X6	Y6	Z6	X7	Y7	Z7	X8	Y8	Z8	X9	Y9	Z9	X10	Y10	Z10	X11	Y11	Z11	X12	Y12	Z12	X13	Y13	Z13	X14	Y14	Z14	X15	Y15	Z15	X16	Y16	Z16	X17	Y17	Z17	X18	Y18	Z18	X19	Y19	Z19	X20	Y20	Z20	X21	Y21	Z21	X22	Y22	Z22	X23	Y23	Z23	X24	Y24	Z24	X25	Y25	Z25	X26	Y26	Z26	X27	Y27	Z27	X28	Y28	Z28	X29	Y29	Z29	X30	Y30	Z30	X31	Y31	Z31	X32	Y32	Z32	X33	Y33	Z33	

89	5.172000000000	827.794970628251	997.964761041526	470.628416879439	973.372251248274	1424.677662646198	283.360435397219	1089.852479885452	1360.764097696183	437.825761242237	1016.107991111290	1435.043001122047	616.001911655763	972.105028702549	1487.648221745187	439.773340289377	1055.844370019355	930.591821994894	580.895291394687	1038.117435829350	953.730609601450	307.309595170742	1071.821358290310	718.746960455747	563.272521969909	976.786126815000	618.135824988969	625.849744725906	1052.655295079577	550.517453116752	556.056800855085	1030.620144097935	443.448719167156	574.814205109387	1110.516910832552	764.445568327844	337.052424449776	1041.595515538886	634.641793016153	277.290988163482	1141.804324106764	571.391867437943	336.278242327882	1154.066526980602	500.783486582254	344.391252446565	1131.670674736174	424.748049978301	339.937132707711	1048.495022685470	302.571816118324	295.041880590206	1113.345697266537	197.711269565090	365.761782431073	948.469413682566	381.780759084919	577.673219486492	824.392762963469	348.750573382210	635.455370803629	805.160706771370	241.726411985165	583.585681062699	599.087893762903	180.077411646318	549.212069474891	769.496634258404	130.991892641743	596.003014648476	658.446349439646	124.104825014414	624.219987162758	836.852629203756	32.816635205838	623.674555080376	996.900710458965	38.303222247121	416.130214551942	1068.985224942473	35.888271841923	333.341614935763	1151.511415418692	98.478515622319	357.768286683345	1279.501312862778	49.894365770389	328.143125602421	875.341351673053	1080.805898740910	195.151145587787	864.906347721127	821.360456353377	217.637643507401	1126.637969463399	1108.631778018651	729.272380701368	1350.530944228669	1176.234675905331	640.264433389857	
90	5.183500000000	827.604480836221	999.392154485670	467.791078684949	975.629603523538	1426.406068788657	281.155660598761	1090.233892879062	1362.389133222682	436.952407019705	1014.543776417061	1436.715716544455	614.281251576513	972.338427811074	1489.299619266079	437.598021676054	1055.069925477817	932.193142793106	578.953421165512	1038.363666887165	955.529565244146	305.622178212599	1076.847820677271	721.847177603915	562.326343557263	984.623923608363	619.153934591208	624.983545238803	1063.089949567401	552.852669795696	556.102535599676	1042.408053388221	444.490619745124	575.435753617145	1108.322775629575	763.344203446045	333.156659225159	1036.239767967865	634.832555692087	275.354734815402	1135.876683020466	570.259855251279	333.713836883805	1147.088465492003	499.942916798920	342.073662274433	1124.154673951086	424.265299938022	338.013819424865	1039.880013098980	302.483533497211	294.033558288512	1104.534521213750	197.531350920870	364.769295849893	958.487635460694	383.487236122212	577.297332229939	832.556167330384	354.868027713629	633.826424115521	810.527013392218	248.318378621406	582.396494697937	603.219161837611	195.140104869087	545.984647512475	770.989194668535	138.064554643949	594.825264991140	659.119026508387	136.345491663385	621.669415428160	833.055905051939	33.987278710131	623.324430286181	987.653223762827	38.322000372243	416.000619791388	1059.718747723717	35.803655790204	333.203129429280	1142.293812139525	98.400010958735	357.447580043753	1270.283232486205	49.742514715585	327.963362941630	884.170413077348	1080.707618205187	190.508572744415	881.946857326641	820.891728531813	210.523835664540	1115.029086535657	1106.746287701056	728.744641969424	1342.830193714485	1162.168837590501	640.957152125697	
91	5.195000000000	827.164474071933	1000.709894409286	465.122825006611	977.901589336492	1427.943482854339	279.076910669376	1090.539636458711	1363.805375496656	436.239617714512	1012.872267757090	1438.180438869503	612.701707609689	972.569047704029	1490.811295782581	435.537260511564	1054.122426510337	933.629797956366	577.162452664748	1038.318301834475	957.189794742634	304.005748376371	1081.730517767890	725.139392420556	561.472667141028	992.438022773299	620.458756336275	624.346084917479	1073.373252304078	555.607079287423	556.270707891423	1054.289869024703	446.075432623150	576.058995604186	1105.788186159983	762.240511053486	329.470869527681	1030.755951643233	635.083638025049	273.506533558823	1129.699247040180	569.175325348430	331.334549406673	1139.832936767118	499.134424644510	339.887587850581	1116.442053599403	423.826631333359	336.205211458794	1031.198651372837	302.404971846557	293.033191644190	1095.661335795810	197.373583682316	363.834640331098	968.895820835967	385.498810363259	576.931698313341	841.360818680615	360.815061409278	632.194569871708	816.850930301959	254.806280775701	581.040740565498	608.754488876965	209.107447120577	542.560481555277	773.854780032482	145.206064740655	593.325180416319	661.448954320783	147.973052352941	618.872555612193	831.243987860964	35.876668480285	622.677298957527	978.377986124258	38.353661800600	415.867222760657	1050.424747880197	35.710642232207	333.066580734828	1133.074545112459	98.295633719687	357.127758286937	1261.054363786117	49.515592677008	327.775173284654	893.362381999875	1080.590911456937	185.727422454730	899.728247614931	820.667531658389	203.348300475584	1102.840669413875	1104.887027863379	728.245656017823	1334.180311430633	1147.147244076604	641.890146421607	
92	5.206500000000	826.487164600425	1001.930413186001	462.599828375102	980.128285483529	1429.286119552042	277.150366163593	1090.765232497407	1365.013964741777	435.670930078752	1011.136681173598	1439.423795375729	611.274128911739	972.798004108631	1492.175338065449	433.617623052826	1053.021153344703	934.902390139588	575.497795675029	1038.025495614566	958.709445662346	302.429297605517	1086.375196162249	728.611623298719	560.642303290907	1000.134867378993	622.069236224288	623.910538247471	1083.383690859461	558.792345618917	556.515646841959	1066.170733825720	448.214521124765	576.701889039191	1103.008274605665	761.187293153390	326.083931018985	1025.262348290782	635.395011930701	271.781362452357	1123.373599493858	568.144670725012	329.205575636866	1132.408895352276	498.361657244438	337.931027536093	1108.637759830385	423.429905021858	334.574839018348	1022.548138434993	302.350094797214	292.075153230291	1086.777778766578	197.234692398948	362.999131068119	979.622241339978	387.809639832062	576.624731404078	850.735305018120	366.447287196457	630.630811442188	824.177655645776	260.976939527614	579.606520046159	615.656904366610	221.516424706718	539.117949673212	778.244725375457	152.057517155011	591.556226420953	665.541953001745	158.505069690842	615.953365454490	831.731363755085	38.391088214875	621.699438702350	969.084756806469	38.394514358007	415.729782729378	1041.115770278423	35.619584426029	332.933671145369	1123.852862810525	98.179649341862	356.826065861819	1251.815808242475	49.257095939258	327.586712893347	902.934537796675	1080.466503078561	180.842228671260	918.207103005098	820.735663352975	196.164042245923	1090.128418893054	1103.071071644266	727.751137430171	1324.496074650998	1131.226242536897	643.100664536282	
93	5.218000000000	825.593630203358	1003.072370911644	460.193962775403	982.258366696138	1430.445222496054	275.394333221740	1090.908861049658	1366.028118822227	435.227102527799	1009.375468626715	1440.446175514534	610.001979789462	973.023897418487	1493.391061820428	431.858153195817	1051.779810473553	936.025307218279	573.936036032866	1037.541934545878	960.089449917653	300.877359552555	1090.713882840211	732.250659622247	559.777518323204	1007.645051386899	623.988158409588	623.643031004838	1093.037934154663	562.405580887369	556.793819380326	1077.974008481079	450.906467223456	577.370489989650	1100.071131375961	760.210426823102	323.073662056188	1019.841895811732	635.752664832012	270.211663694514	1116.975436177785	567.160338441100	327.378498012915	1124.898522054484	497.619966062092	336.284964958856	1100.818982891439	423.068516529108	333.175818126514	1013.999326423049	302.323289301991	291.192078477937	1077.921502243673	197.108935114271	362.296925009641	990.612790468347	390.404101140821	576.414268957825	860.625124586058	371.621290314399	629.204589008261	832.550169882543	266.621346190719	578.188147080336	623.887112394086	231.972629547276	535.839145558514	784.294060566251	158.267434389123	589.607079646540	671.473845200559	167.512191350881	613.055837586946	834.773910728200	41.322448178409	620.407661492501	959.782129331260	38.439424192884	415.592054682113	1031.801865451300	35.538226502150	332.807565444344	1114.627168012768	98.063571807235	356.558060873148	1242.567892134773	49.003161349239	327.405697833856	912.891361806457	1080.367676301894	175.892272655022	937.336902638692	821.164123208026	189.030878685047	1076.953945053637	1101.335041705661	727.230645353694	1313.699373243458	1114.456466091295	644.623639816477	
94	5.229500000000	824.513016727226	1004.152961651368	457.877868379341	984.255455707618	1431.441193738166	273.818624848544	1090.972644045475	1366.866292275766	434.889050701021	1007.620797803724	1441.257621027268	608.881805529234	973.244116178633	1494.461867881685	430.269755166579	1050.406146445383	937.021198898885	572.460308979104	1036.931510870501	961.330697766390	299.351833673654	1094.704534388663	736.041991724186	558.841011656235	1014.921048601288	626.203260502492	623.506013770363	1102.285780558448	566.429494719016	557.065864260762	1089.637546504568	454.137225518529	578.053579132662	1097.052361506876	759.312134974872	320.503443730142	1014.550150313336	636.135248342855	268.820514675313	1110.559536597482	566.206932685682	325.888550255824	1117.361043986186	496.899240985326	335.007032688900	1093.039299735685	422.732629602319	332.047863017416	1005.602039001133	302.321217998163	290.407258666793	1069.117638572062	196.988572639985	361.752435718883	1001.824696634519	393.257562191143	576.321031684323	870.988674972577	376.204001010962	627.976019409200	841.999516321208	271.550669540707	576.876043986965	633.407826939039	240.165448773888	532.892168885438	792.111649185400	163.528643263974	587.600530658753	679.288753185017	174.647955524241	610.332722645189	840.552691565811	44.383444443392	618.875707196888	950.476555074857	38.482922702277	415.459843925177	1022.490024381941	35.471393873783	332.691706359597	1105.396075733115	97.954641258347	356.336029352280	1233.310954029354	48.778160122804	327.238810373660	923.218738849488	1080.343870991855	170.919358147465	957.063106380114	822.034624785257	182.013979984348	1063.391038172019	1099.729029864076	726.649399164314	1301.716137490738	1096.888679857817	646.490056035503	
